<svg width="227.189453" height="44.000000" viewBox="0 0 227.189 44" fill="none" xmlns="http://www.w3.org/2000/svg" xmlns:xlink="http://www.w3.org/1999/xlink">
	<desc>
			Created with Pixso.
	</desc>
	<defs/>
	<rect id="Rectangle 157" y="11.000000" width="27.000000" height="22.000000" fill="#FFFFFF" fill-opacity="0.900000"/>
	<rect id="Rectangle 158" x="27.000000" width="27.000000" height="22.000000" fill="#FFFFFF" fill-opacity="1.000000"/>
	<rect id="Rectangle 159" x="21.000000" y="22.000000" width="27.000000" height="22.000000" fill="#FFFFFF" fill-opacity="0.800000"/>
	<path id="BookShelter" d="M74.68 36.152C73.36 36.152 72.364 35.924 71.692 35.468C71.02 35.036 70.684 34.304 70.684 33.272C70.684 33.2 70.744 33.164 70.864 33.164C71.032 33.164 71.332 33.224 71.764 33.344C72.196 33.464 73.024 33.524 74.248 33.524C76.312 33.524 78.22 33.296 79.972 32.84C81.724 32.36 83.236 31.712 84.508 30.896C85.804 30.08 86.8 29.168 87.496 28.16C88.216 27.128 88.576 26.072 88.576 24.992C88.576 24.008 88.3 23.216 87.748 22.616C87.196 22.016 86.464 21.56 85.552 21.248C84.664 20.936 83.692 20.732 82.636 20.636C81.58 20.516 80.536 20.456 79.504 20.456C79.048 20.456 78.58 20.468 78.1 20.492C77.644 20.492 77.212 20.492 76.804 20.492C76.252 22.436 75.712 24.392 75.184 26.36C74.656 28.328 74.116 30.236 73.564 32.084C72.964 32.084 72.46 31.916 72.052 31.58C71.644 31.244 71.44 30.836 71.44 30.356C71.44 30.068 71.5 29.732 71.62 29.348C71.74 28.964 71.848 28.616 71.944 28.304C72.088 27.824 72.34 27.02 72.7 25.892C73.06 24.764 73.492 23.444 73.996 21.932C74.524 20.42 75.1 18.836 75.724 17.18C76.348 15.524 76.984 13.904 77.632 12.32C78.304 10.736 78.952 9.332 79.576 8.108C78.568 8.276 77.716 8.516 77.02 8.828C76.348 9.14 75.82 9.428 75.436 9.692C75.052 9.932 74.776 10.052 74.608 10.052C74.44 10.052 74.2 9.932 73.888 9.692C73.6 9.452 73.456 9.248 73.456 9.08C74.656 8.576 75.904 8.12 77.2 7.712C78.52 7.304 80.116 7.1 81.988 7.1C82.78 7.1 83.656 7.172 84.616 7.316C85.576 7.436 86.488 7.7 87.352 8.108C88.216 8.492 88.924 9.068 89.476 9.836C90.028 10.58 90.304 11.576 90.304 12.824C90.304 14 90.052 15.008 89.548 15.848C89.044 16.664 88.384 17.348 87.568 17.9C86.752 18.428 85.864 18.848 84.904 19.16C83.944 19.472 82.996 19.7 82.06 19.844C83.836 19.94 85.264 20.192 86.344 20.6C87.448 21.008 88.276 21.5 88.828 22.076C89.404 22.628 89.788 23.216 89.98 23.84C90.172 24.464 90.268 25.064 90.268 25.64C90.268 27.032 89.908 28.292 89.188 29.42C88.468 30.548 87.52 31.532 86.344 32.372C85.168 33.212 83.884 33.908 82.492 34.46C81.1 35.036 79.72 35.456 78.352 35.72C76.984 36.008 75.76 36.152 74.68 36.152ZM77.02 19.664C78.34 19.616 79.648 19.472 80.944 19.232C82.264 18.968 83.464 18.56 84.544 18.008C85.624 17.456 86.488 16.736 87.136 15.848C87.808 14.96 88.144 13.856 88.144 12.536C88.144 11.288 87.844 10.328 87.244 9.656C86.668 8.984 85.912 8.516 84.976 8.252C84.064 7.988 83.092 7.856 82.06 7.856C81.94 7.856 81.82 7.856 81.7 7.856C81.604 7.856 81.496 7.868 81.376 7.892C80.512 9.572 79.72 11.42 79 13.436C78.304 15.452 77.644 17.528 77.02 19.664ZM94.3863 34.172C93.3543 34.172 92.6223 33.848 92.1903 33.2C91.7583 32.576 91.5423 31.808 91.5423 30.896C91.5423 30.152 91.6623 29.384 91.9023 28.592C92.1423 27.8 92.4543 27.056 92.8383 26.36C93.2463 25.664 93.6903 25.1 94.1703 24.668C94.6743 24.236 95.1783 24.02 95.6823 24.02C95.8983 24.02 96.1503 24.08 96.4383 24.2C96.2223 24.392 95.9583 24.752 95.6463 25.28C95.3583 25.784 95.0823 26.372 94.8183 27.044C94.5543 27.692 94.3263 28.34 94.1343 28.988C93.9663 29.636 93.8823 30.188 93.8823 30.644C93.8823 31.364 94.0023 31.892 94.2423 32.228C94.4823 32.54 94.7943 32.696 95.1783 32.696C95.6823 32.696 96.2823 32.432 96.9783 31.904C97.6743 31.352 98.3583 30.656 99.0303 29.816C98.3583 29.264 97.8303 28.544 97.4463 27.656C97.0863 26.744 96.9063 25.82 96.9063 24.884C96.9063 24.092 97.0383 23.348 97.3023 22.652C97.5903 21.956 97.9983 21.404 98.5263 20.996C99.0543 20.564 99.6903 20.348 100.434 20.348C101.418 20.348 102.078 20.612 102.414 21.14C102.75 21.668 102.918 22.328 102.918 23.12C102.918 24.056 102.69 25.1 102.234 26.252C101.778 27.38 101.202 28.472 100.506 29.528C100.938 29.768 101.394 29.888 101.874 29.888C102.426 29.888 103.098 29.708 103.89 29.348C104.682 28.964 105.294 28.28 105.726 27.296L106.158 27.656C105.678 28.784 104.994 29.588 104.106 30.068C103.242 30.524 102.414 30.752 101.622 30.752C100.974 30.752 100.398 30.632 99.8943 30.392C99.0783 31.472 98.1783 32.372 97.1943 33.092C96.2343 33.812 95.2983 34.172 94.3863 34.172ZM99.6783 28.88C100.278 27.992 100.77 27.068 101.154 26.108C101.562 25.124 101.766 24.2 101.766 23.336C101.766 22.64 101.658 22.136 101.442 21.824C101.25 21.488 100.998 21.32 100.686 21.32C100.206 21.32 99.7143 21.668 99.2103 22.364C98.7063 23.06 98.4543 23.936 98.4543 24.992C98.4543 25.688 98.5503 26.396 98.7423 27.116C98.9583 27.812 99.2703 28.4 99.6783 28.88ZM107.535 34.172C106.503 34.172 105.771 33.848 105.339 33.2C104.907 32.576 104.691 31.808 104.691 30.896C104.691 30.152 104.811 29.384 105.051 28.592C105.291 27.8 105.603 27.056 105.987 26.36C106.395 25.664 106.839 25.1 107.319 24.668C107.823 24.236 108.327 24.02 108.831 24.02C109.047 24.02 109.299 24.08 109.587 24.2C109.371 24.392 109.107 24.752 108.795 25.28C108.507 25.784 108.231 26.372 107.967 27.044C107.703 27.692 107.475 28.34 107.283 28.988C107.115 29.636 107.031 30.188 107.031 30.644C107.031 31.364 107.151 31.892 107.391 32.228C107.631 32.54 107.943 32.696 108.327 32.696C108.831 32.696 109.431 32.432 110.127 31.904C110.823 31.352 111.507 30.656 112.179 29.816C111.507 29.264 110.979 28.544 110.595 27.656C110.235 26.744 110.055 25.82 110.055 24.884C110.055 24.092 110.187 23.348 110.451 22.652C110.739 21.956 111.147 21.404 111.675 20.996C112.203 20.564 112.839 20.348 113.583 20.348C114.567 20.348 115.227 20.612 115.563 21.14C115.899 21.668 116.067 22.328 116.067 23.12C116.067 24.056 115.839 25.1 115.383 26.252C114.927 27.38 114.351 28.472 113.655 29.528C114.087 29.768 114.543 29.888 115.023 29.888C115.575 29.888 116.247 29.708 117.039 29.348C117.831 28.964 118.443 28.28 118.875 27.296L119.307 27.656C118.827 28.784 118.143 29.588 117.255 30.068C116.391 30.524 115.563 30.752 114.771 30.752C114.123 30.752 113.547 30.632 113.043 30.392C112.227 31.472 111.327 32.372 110.343 33.092C109.383 33.812 108.447 34.172 107.535 34.172ZM112.827 28.88C113.427 27.992 113.919 27.068 114.303 26.108C114.711 25.124 114.915 24.2 114.915 23.336C114.915 22.64 114.807 22.136 114.591 21.824C114.399 21.488 114.147 21.32 113.835 21.32C113.355 21.32 112.863 21.668 112.359 22.364C111.855 23.06 111.603 23.936 111.603 24.992C111.603 25.688 111.699 26.396 111.891 27.116C112.107 27.812 112.419 28.4 112.827 28.88ZM128.891 34.388C128.219 34.388 127.643 34.16 127.163 33.704C126.683 33.248 126.299 32.672 126.011 31.976C125.747 31.28 125.543 30.572 125.399 29.852C125.279 29.108 125.219 28.46 125.219 27.908C125.483 27.908 125.867 27.848 126.371 27.728C126.875 27.584 127.391 27.38 127.919 27.116C128.447 26.828 128.891 26.468 129.251 26.036C129.635 25.58 129.827 25.052 129.827 24.452C129.827 23.948 129.647 23.552 129.287 23.264C128.927 22.976 128.507 22.832 128.027 22.832C127.283 22.832 126.587 23.096 125.939 23.624C125.291 24.128 124.703 24.8 124.175 25.64C123.671 26.456 123.215 27.332 122.807 28.268C122.399 29.204 122.051 30.092 121.763 30.932C121.475 31.772 121.235 32.468 121.043 33.02C120.899 33.452 120.695 33.74 120.431 33.884C120.167 34.052 119.891 34.136 119.603 34.136C119.195 34.136 118.895 33.968 118.703 33.632C118.535 33.296 118.427 32.876 118.379 32.372C118.355 31.844 118.343 31.304 118.343 30.752C118.343 29.504 118.547 28.064 118.955 26.432C119.363 24.8 119.903 23.108 120.575 21.356C121.271 19.58 122.027 17.864 122.843 16.208C123.659 14.552 124.475 13.052 125.291 11.708C126.107 10.364 126.863 9.296 127.559 8.504C128.255 7.712 128.819 7.316 129.251 7.316C129.587 7.316 129.851 7.544 130.043 8C130.259 8.456 130.367 9.008 130.367 9.656C130.367 10.472 130.187 11.396 129.827 12.428C129.467 13.436 128.951 14.456 128.279 15.488C127.631 16.52 126.851 17.492 125.939 18.404C125.051 19.316 124.079 20.096 123.023 20.744C122.231 22.688 121.631 24.584 121.223 26.432C120.839 28.256 120.647 29.792 120.647 31.04C121.031 30.08 121.487 29.024 122.015 27.872C122.567 26.72 123.191 25.616 123.887 24.56C124.583 23.504 125.339 22.64 126.155 21.968C126.971 21.296 127.823 20.96 128.711 20.96C129.599 20.96 130.355 21.272 130.979 21.896C131.603 22.52 131.915 23.276 131.915 24.164C131.915 24.932 131.711 25.592 131.303 26.144C130.919 26.672 130.439 27.104 129.863 27.44C129.311 27.752 128.747 27.992 128.171 28.16C127.619 28.304 127.163 28.376 126.803 28.376C126.827 28.568 126.899 28.916 127.019 29.42C127.139 29.924 127.307 30.452 127.523 31.004C127.763 31.556 128.051 32.036 128.387 32.444C128.723 32.828 129.131 33.02 129.611 33.02C130.643 33.02 131.603 32.456 132.491 31.328C133.379 30.176 134.195 28.784 134.939 27.152L135.299 27.512C134.963 28.688 134.447 29.804 133.751 30.86C133.055 31.892 132.275 32.732 131.411 33.38C130.571 34.052 129.731 34.388 128.891 34.388ZM123.635 19.304C124.739 18.416 125.699 17.408 126.515 16.28C127.355 15.152 128.003 14.072 128.459 13.04C128.915 11.984 129.143 11.156 129.143 10.556C129.143 10.34 129.107 10.232 129.035 10.232C128.795 10.232 128.375 10.652 127.775 11.492C127.199 12.332 126.539 13.448 125.795 14.84C125.051 16.208 124.331 17.696 123.635 19.304ZM141.574 36.152C140.278 36.152 139.054 35.912 137.902 35.432C136.75 34.976 135.814 34.268 135.094 33.308C134.398 32.348 134.05 31.148 134.05 29.708C134.05 28.46 134.29 27.488 134.77 26.792C135.274 26.096 135.886 25.604 136.606 25.316C137.326 25.028 138.01 24.884 138.658 24.884C138.01 25.58 137.518 26.348 137.182 27.188C136.846 28.028 136.678 28.868 136.678 29.708C136.678 30.596 136.87 31.424 137.254 32.192C137.662 32.96 138.274 33.572 139.09 34.028C139.906 34.508 140.938 34.748 142.186 34.748C143.266 34.748 144.322 34.544 145.354 34.136C146.386 33.752 147.226 33.176 147.874 32.408C148.546 31.616 148.882 30.644 148.882 29.492C148.882 28.46 148.618 27.572 148.09 26.828C147.562 26.084 146.878 25.424 146.038 24.848C145.222 24.272 144.346 23.72 143.41 23.192C142.474 22.664 141.586 22.112 140.746 21.536C139.93 20.936 139.258 20.252 138.73 19.484C138.202 18.716 137.938 17.792 137.938 16.712C137.938 15.704 138.178 14.648 138.658 13.544C139.138 12.44 139.822 11.396 140.71 10.412C141.622 9.428 142.702 8.636 143.95 8.036C145.222 7.412 146.638 7.1 148.198 7.1C149.614 7.1 150.598 7.448 151.15 8.144C151.702 8.816 151.978 9.668 151.978 10.7C151.978 11.564 151.822 12.5 151.51 13.508C151.222 14.492 150.862 15.44 150.43 16.352C149.998 17.24 149.59 17.996 149.206 18.62C148.774 18.524 148.462 18.344 148.27 18.08C148.102 17.792 148.018 17.456 148.018 17.072C148.018 16.568 148.126 15.992 148.342 15.344C148.558 14.696 148.798 14.024 149.062 13.328C149.35 12.632 149.602 11.96 149.818 11.312C150.034 10.64 150.142 10.04 150.142 9.512C150.142 9.032 149.998 8.66 149.71 8.396C149.422 8.108 148.894 7.964 148.126 7.964C146.998 7.964 145.954 8.228 144.994 8.756C144.034 9.284 143.194 9.968 142.474 10.808C141.754 11.624 141.19 12.488 140.782 13.4C140.398 14.312 140.206 15.14 140.206 15.884C140.206 16.772 140.458 17.54 140.962 18.188C141.49 18.812 142.162 19.388 142.978 19.916C143.794 20.42 144.658 20.936 145.57 21.464C146.506 21.968 147.382 22.532 148.198 23.156C149.014 23.78 149.674 24.524 150.178 25.388C150.706 26.228 150.97 27.26 150.97 28.484C150.97 29.732 150.694 30.836 150.142 31.796C149.59 32.732 148.846 33.524 147.91 34.172C146.998 34.82 145.99 35.312 144.886 35.648C143.782 35.984 142.678 36.152 141.574 36.152ZM155.258 34.388C154.802 34.388 154.442 34.004 154.178 33.236C153.914 32.468 153.782 31.604 153.782 30.644C153.782 29.492 153.974 28.124 154.358 26.54C154.742 24.956 155.246 23.288 155.87 21.536C156.494 19.784 157.19 18.068 157.958 16.388C158.75 14.708 159.554 13.184 160.37 11.816C161.186 10.448 161.954 9.356 162.674 8.54C163.394 7.724 164.018 7.316 164.546 7.316C164.978 7.316 165.278 7.58 165.446 8.108C165.638 8.612 165.734 9.104 165.734 9.584C165.734 10.256 165.578 11.072 165.266 12.032C164.978 12.992 164.57 14.024 164.042 15.128C163.514 16.208 162.902 17.276 162.206 18.332C161.51 19.388 160.754 20.36 159.938 21.248C159.122 22.112 158.294 22.796 157.454 23.3C157.166 23.996 156.914 24.776 156.698 25.64C156.506 26.504 156.362 27.356 156.266 28.196C156.17 29.012 156.122 29.744 156.122 30.392C156.122 30.656 156.122 30.884 156.122 31.076C156.146 31.268 156.17 31.448 156.194 31.616C156.77 29.96 157.418 28.424 158.138 27.008C158.858 25.592 159.662 24.452 160.55 23.588C161.462 22.724 162.446 22.292 163.502 22.292C164.486 22.292 165.182 22.64 165.59 23.336C166.022 24.008 166.238 24.74 166.238 25.532C166.238 26.276 166.106 26.996 165.842 27.692C165.602 28.388 165.35 29.06 165.086 29.708C164.822 30.356 164.69 30.98 164.69 31.58C164.69 32.06 164.786 32.408 164.978 32.624C165.194 32.84 165.458 32.948 165.77 32.948C166.322 32.948 166.934 32.684 167.606 32.156C168.302 31.628 168.986 30.932 169.658 30.068C170.33 29.18 170.906 28.22 171.386 27.188L171.854 27.62C171.35 28.796 170.738 29.864 170.018 30.824C169.298 31.76 168.506 32.504 167.642 33.056C166.778 33.608 165.878 33.884 164.942 33.884C164.126 33.884 163.502 33.668 163.07 33.236C162.662 32.804 162.458 32.264 162.458 31.616C162.458 31.112 162.554 30.548 162.746 29.924C162.938 29.3 163.118 28.664 163.286 28.016C163.478 27.368 163.574 26.756 163.574 26.18C163.574 25.556 163.442 25.112 163.178 24.848C162.914 24.584 162.59 24.452 162.206 24.452C161.606 24.452 161.066 24.692 160.586 25.172C160.106 25.652 159.662 26.276 159.254 27.044C158.87 27.788 158.498 28.58 158.138 29.42C157.802 30.26 157.478 31.064 157.166 31.832C156.854 32.576 156.542 33.188 156.23 33.668C155.918 34.148 155.594 34.388 155.258 34.388ZM157.922 21.896C158.594 21.368 159.242 20.696 159.866 19.88C160.514 19.064 161.114 18.2 161.666 17.288C162.218 16.352 162.71 15.44 163.142 14.552C163.574 13.664 163.91 12.86 164.15 12.14C164.39 11.42 164.51 10.88 164.51 10.52C164.51 10.328 164.462 10.232 164.366 10.232C164.198 10.232 163.85 10.568 163.322 11.24C162.818 11.888 162.23 12.764 161.558 13.868C160.886 14.972 160.226 16.22 159.578 17.612C158.93 19.004 158.378 20.432 157.922 21.896ZM174.576 34.604C173.112 34.604 172.008 34.196 171.263 33.38C170.544 32.588 170.184 31.604 170.184 30.428C170.184 29.348 170.448 28.208 170.975 27.008C171.527 25.808 172.247 24.68 173.135 23.624C174.048 22.568 175.044 21.716 176.124 21.068C177.203 20.396 178.271 20.06 179.327 20.06C179.88 20.06 180.383 20.204 180.84 20.492C181.32 20.78 181.56 21.368 181.56 22.256C181.56 23.168 181.284 24.032 180.732 24.848C180.203 25.64 179.495 26.348 178.607 26.972C177.743 27.596 176.784 28.112 175.728 28.52C174.695 28.904 173.663 29.144 172.632 29.24C172.583 29.48 172.548 29.708 172.523 29.924C172.499 30.14 172.488 30.344 172.488 30.536C172.488 31.28 172.68 31.976 173.064 32.624C173.471 33.248 174.228 33.56 175.331 33.56C176.363 33.56 177.383 33.272 178.392 32.696C179.4 32.096 180.336 31.316 181.199 30.356C182.064 29.396 182.796 28.34 183.396 27.188L183.827 27.512C183.18 28.952 182.352 30.2 181.344 31.256C180.359 32.312 179.28 33.128 178.104 33.704C176.952 34.304 175.775 34.604 174.576 34.604ZM172.811 28.556C173.46 28.34 174.191 28.028 175.008 27.62C175.824 27.188 176.604 26.684 177.348 26.108C178.116 25.532 178.74 24.896 179.219 24.2C179.724 23.504 179.975 22.772 179.975 22.004C179.975 21.74 179.927 21.536 179.831 21.392C179.736 21.248 179.531 21.176 179.219 21.176C178.643 21.176 178.031 21.404 177.383 21.86C176.736 22.292 176.112 22.868 175.512 23.588C174.911 24.308 174.371 25.1 173.892 25.964C173.411 26.828 173.051 27.692 172.811 28.556ZM185.664 34.1C184.632 34.1 183.888 33.74 183.432 33.02C183 32.324 182.784 31.448 182.784 30.392C182.784 29.24 183 27.872 183.432 26.288C183.864 24.704 184.428 23.036 185.124 21.284C185.844 19.532 186.624 17.828 187.464 16.172C188.304 14.492 189.144 12.968 189.984 11.6C190.824 10.232 191.592 9.14 192.288 8.324C193.008 7.508 193.572 7.1 193.98 7.1C194.244 7.1 194.46 7.256 194.628 7.568C194.796 7.856 194.928 8.216 195.024 8.648C195.12 9.056 195.168 9.428 195.168 9.764C195.168 10.412 195 11.264 194.664 12.32C194.352 13.352 193.896 14.516 193.296 15.812C192.72 17.084 192.024 18.38 191.208 19.7C190.416 20.996 189.54 22.244 188.58 23.444C187.644 24.644 186.648 25.676 185.592 26.54C185.448 27.188 185.328 27.824 185.232 28.448C185.16 29.048 185.124 29.624 185.124 30.176C185.124 32.024 185.652 32.948 186.708 32.948C187.356 32.948 187.992 32.66 188.616 32.084C189.264 31.508 189.864 30.788 190.416 29.924C190.992 29.036 191.484 28.124 191.892 27.188L192.432 27.476C191.472 29.516 190.428 31.136 189.3 32.336C188.172 33.512 186.96 34.1 185.664 34.1ZM185.916 25.316C186.756 24.476 187.572 23.516 188.364 22.436C189.156 21.332 189.888 20.192 190.56 19.016C191.256 17.84 191.868 16.7 192.396 15.596C192.924 14.492 193.332 13.508 193.62 12.644C193.908 11.756 194.052 11.072 194.052 10.592C194.052 10.352 194.016 10.196 193.944 10.124C193.896 10.052 193.848 10.016 193.8 10.016C193.608 10.016 193.272 10.328 192.792 10.952C192.336 11.552 191.796 12.368 191.172 13.4C190.548 14.432 189.912 15.608 189.264 16.928C188.616 18.248 187.992 19.628 187.392 21.068C186.816 22.508 186.324 23.924 185.916 25.316ZM194.244 34.676C192.108 34.676 191.04 33.488 191.04 31.112C191.04 30.056 191.232 28.76 191.616 27.224C192.024 25.664 192.528 24.068 193.128 22.436C192.888 22.388 192.66 22.352 192.444 22.328C192.228 22.28 192.024 22.22 191.832 22.148L191.832 21.5C192.024 21.524 192.252 21.548 192.516 21.572C192.78 21.596 193.08 21.62 193.416 21.644C193.92 20.348 194.46 19.1 195.036 17.9C195.612 16.676 196.176 15.596 196.728 14.66C197.304 13.7 197.844 12.944 198.348 12.392C198.876 11.816 199.32 11.528 199.68 11.528C199.872 11.528 200.04 11.6 200.184 11.744C200.352 11.864 200.436 12.056 200.436 12.32C200.436 12.728 200.184 13.4 199.68 14.336C199.176 15.248 198.552 16.34 197.808 17.612C197.064 18.884 196.344 20.264 195.648 21.752L196.98 21.752C197.772 21.752 198.6 21.74 199.464 21.716C200.352 21.692 201.24 21.632 202.128 21.536L202.128 22.184C199.512 22.472 197.4 22.616 195.792 22.616L195.252 22.616C194.7 23.888 194.232 25.196 193.848 26.54C193.464 27.884 193.272 29.192 193.272 30.464C193.272 31.496 193.428 32.24 193.74 32.696C194.052 33.128 194.568 33.344 195.288 33.344C196.536 33.344 197.76 32.792 198.96 31.688C200.16 30.584 201.216 29.084 202.128 27.188L202.596 27.548C202.02 28.892 201.288 30.104 200.4 31.184C199.536 32.264 198.576 33.116 197.52 33.74C196.464 34.364 195.372 34.676 194.244 34.676ZM205.337 34.604C203.873 34.604 202.769 34.196 202.025 33.38C201.305 32.588 200.945 31.604 200.945 30.428C200.945 29.348 201.209 28.208 201.737 27.008C202.289 25.808 203.009 24.68 203.897 23.624C204.809 22.568 205.805 21.716 206.885 21.068C207.965 20.396 209.033 20.06 210.089 20.06C210.641 20.06 211.145 20.204 211.601 20.492C212.081 20.78 212.321 21.368 212.321 22.256C212.321 23.168 212.045 24.032 211.493 24.848C210.965 25.64 210.257 26.348 209.369 26.972C208.505 27.596 207.545 28.112 206.489 28.52C205.457 28.904 204.425 29.144 203.393 29.24C203.345 29.48 203.309 29.708 203.285 29.924C203.261 30.14 203.249 30.344 203.249 30.536C203.249 31.28 203.441 31.976 203.825 32.624C204.233 33.248 204.989 33.56 206.093 33.56C207.125 33.56 208.145 33.272 209.153 32.696C210.161 32.096 211.097 31.316 211.961 30.356C212.825 29.396 213.557 28.34 214.157 27.188L214.589 27.512C213.941 28.952 213.113 30.2 212.105 31.256C211.121 32.312 210.041 33.128 208.865 33.704C207.713 34.304 206.537 34.604 205.337 34.604ZM203.573 28.556C204.221 28.34 204.953 28.028 205.769 27.62C206.585 27.188 207.365 26.684 208.109 26.108C208.877 25.532 209.501 24.896 209.981 24.2C210.485 23.504 210.737 22.772 210.737 22.004C210.737 21.74 210.689 21.536 210.593 21.392C210.497 21.248 210.293 21.176 209.981 21.176C209.405 21.176 208.793 21.404 208.145 21.86C207.497 22.292 206.873 22.868 206.273 23.588C205.673 24.308 205.133 25.1 204.653 25.964C204.173 26.828 203.813 27.692 203.573 28.556ZM219.665 33.956C218.85 33.956 218.202 33.74 217.721 33.308C217.266 32.876 217.038 32.312 217.038 31.616C217.038 30.896 217.206 30.14 217.542 29.348C217.878 28.556 218.202 27.776 218.514 27.008C218.85 26.216 219.018 25.508 219.018 24.884C219.018 24.116 218.79 23.552 218.333 23.192C217.902 22.808 217.458 22.46 217.001 22.148C216.449 23.564 215.874 24.908 215.273 26.18C214.673 27.452 214.182 28.412 213.798 29.06L213.473 28.448C213.809 27.824 214.242 26.912 214.77 25.712C215.322 24.512 215.861 23.144 216.389 21.608C216.15 21.368 216.029 21.08 216.029 20.744C216.029 20.024 216.234 19.436 216.641 18.98C217.049 18.524 217.35 18.296 217.542 18.296C217.805 18.296 217.949 18.416 217.973 18.656C218.021 18.872 218.046 19.04 218.046 19.16C218.046 19.28 217.973 19.52 217.829 19.88C217.71 20.216 217.65 20.42 217.65 20.492C217.65 20.828 217.829 21.14 218.189 21.428C218.574 21.692 219.005 22.004 219.486 22.364C219.965 22.7 220.385 23.12 220.745 23.624C221.13 24.104 221.322 24.728 221.322 25.496C221.322 26.216 221.165 26.948 220.854 27.692C220.566 28.436 220.266 29.144 219.954 29.816C219.665 30.488 219.521 31.076 219.521 31.58C219.521 32.012 219.63 32.3 219.846 32.444C220.061 32.588 220.314 32.66 220.602 32.66C221.178 32.66 221.766 32.48 222.365 32.12C222.99 31.76 223.59 31.304 224.165 30.752C224.742 30.2 225.258 29.624 225.714 29.024C226.169 28.4 226.505 27.824 226.721 27.296L227.189 27.656C226.734 28.664 226.109 29.66 225.318 30.644C224.525 31.604 223.637 32.396 222.654 33.02C221.693 33.644 220.697 33.956 219.665 33.956Z" fill="#FFFFFF" fill-opacity="1.000000" fill-rule="evenodd"/>
</svg>
