<svg width="20.000000" height="20.000000" viewBox="0 0 20 20" fill="none" xmlns="http://www.w3.org/2000/svg" xmlns:xlink="http://www.w3.org/1999/xlink">
	<desc>
			Created with Pixso.
	</desc>
	<defs>
		<clipPath id="clip606_825">
			<rect id="lock" width="20.000000" height="20.000000" fill="white" fill-opacity="0"/>
		</clipPath>
	</defs>
	<rect id="lock" width="20.000000" height="20.000000" fill="#FFFFFF" fill-opacity="0"/>
	<g clip-path="url(#clip606_825)">
		<path id="Vector" d="M15.8334 9.16669C16.7538 9.16669 17.5 9.91287 17.5 10.8334L17.5 16.6667C17.5 17.5872 16.7538 18.3334 15.8334 18.3334L4.16663 18.3334C3.24622 18.3334 2.5 17.5872 2.5 16.6667L2.5 10.8334C2.5 9.91287 3.24622 9.16669 4.16663 9.16669L15.8334 9.16669Z" stroke="#FFFFFF" stroke-opacity="1.000000" stroke-width="1.000000" stroke-linejoin="round"/>
		<path id="Vector" d="M5.83337 9.16669L5.83337 5.83336C5.83337 4.72829 6.27234 3.66847 7.05371 2.88707C7.83521 2.10567 8.89502 1.66669 10 1.66669C11.1051 1.66669 12.1649 2.10567 12.9463 2.88707C13.7277 3.66847 14.1667 4.72829 14.1667 5.83336L14.1667 9.16669" stroke="#FFFFFF" stroke-opacity="1.000000" stroke-width="1.000000" stroke-linejoin="round" stroke-linecap="round"/>
	</g>
</svg>
