<svg width="24.000000" height="24.000000" viewBox="0 0 24 24" fill="none" xmlns="http://www.w3.org/2000/svg" xmlns:xlink="http://www.w3.org/1999/xlink">
	<desc>
			Created with Pixso.
	</desc>
	<defs>
		<clipPath id="clip606_414">
			<rect id="book-open 1" width="24.000000" height="24.000000" fill="white" fill-opacity="0"/>
		</clipPath>
	</defs>
	<rect id="book-open 1" width="24.000000" height="24.000000" fill="#FFFFFF" fill-opacity="0"/>
	<g clip-path="url(#clip606_414)">
		<path id="Vector" d="M8 3C9.06085 3 10.0783 3.42143 10.8284 4.17157C11.5786 4.92172 12 5.93913 12 7L12 21C12 20.2044 11.684 19.4413 11.1213 18.8787C10.5587 18.3161 9.79565 18 9 18L2 18L2 3L8 3Z" stroke="#75828A" stroke-opacity="1.000000" stroke-width="2.000000" stroke-linejoin="round"/>
		<path id="Vector" d="M16 3C14.9391 3 13.9217 3.42143 13.1716 4.17157C12.4214 4.92172 12 5.93913 12 7L12 21C12 20.2044 12.316 19.4413 12.8787 18.8787C13.4413 18.3161 14.2043 18 15 18L22 18L22 3L16 3Z" stroke="#75828A" stroke-opacity="1.000000" stroke-width="2.000000" stroke-linejoin="round"/>
	</g>
</svg>
