<svg width="23.000000" height="23.000000" viewBox="0 0 23 23" fill="none" xmlns="http://www.w3.org/2000/svg" xmlns:xlink="http://www.w3.org/1999/xlink">
	<desc>
			Created with Pixso.
	</desc>
	<defs/>
	<path id="Vector" d="M4.90677 16.1L3.37341 19.665L6.93848 18.1317C6.13345 17.5566 5.44345 16.8666 4.90677 16.1Z" fill="#FFCE31" fill-opacity="1.000000" fill-rule="nonzero"/>
	<path id="Vector" d="M18.0933 6.89999L19.6266 3.33499L16.1 4.86832C16.8666 5.44333 17.5566 6.13333 18.0933 6.89999Z" fill="#FFCE31" fill-opacity="1.000000" fill-rule="nonzero"/>
	<path id="Vector" d="M3.60339 10.0817L0 11.5L3.60339 12.9184C3.4884 12.4584 3.45007 11.9984 3.45007 11.5C3.45007 11.0017 3.4884 10.5417 3.60339 10.0817Z" fill="#FFCE31" fill-opacity="1.000000" fill-rule="nonzero"/>
	<path id="Vector" d="M19.3966 12.9184L23 11.5L19.3966 10.0817C19.4733 10.5417 19.55 11.04 19.55 11.5C19.55 11.9984 19.5116 12.4584 19.3966 12.9184Z" fill="#FFCE31" fill-opacity="1.000000" fill-rule="nonzero"/>
	<path id="Vector" d="M6.8999 4.90665L3.33496 3.37332L4.86826 6.93832C5.44327 6.13333 6.13324 5.44333 6.8999 4.90665Z" fill="#FFCE31" fill-opacity="1.000000" fill-rule="nonzero"/>
	<path id="Vector" d="M16.1 18.0933L19.665 19.6266L18.1317 16.0616C17.5567 16.8666 16.8667 17.5566 16.1 18.0933Z" fill="#FFCE31" fill-opacity="1.000000" fill-rule="nonzero"/>
	<path id="Vector" d="M12.9185 3.60333L11.5001 0L10.0818 3.60333C10.5418 3.52667 11.0401 3.45001 11.5001 3.45001C11.9601 3.45001 12.4585 3.48834 12.9185 3.60333Z" fill="#FFCE31" fill-opacity="1.000000" fill-rule="nonzero"/>
	<path id="Vector" d="M10.0818 19.3967L11.5001 23L12.9185 19.3967C12.4585 19.5117 11.9984 19.55 11.5001 19.55C11.0018 19.55 10.5418 19.5117 10.0818 19.3967Z" fill="#FFCE31" fill-opacity="1.000000" fill-rule="nonzero"/>
	<path id="Vector" d="M18.7833 11.5C18.7833 15.5225 15.5225 18.7833 11.5 18.7833C7.47754 18.7833 4.21667 15.5225 4.21667 11.5C4.21667 7.47754 7.47754 4.21667 11.5 4.21667C15.5225 4.21667 18.7833 7.47754 18.7833 11.5Z" fill="#FFCE31" fill-opacity="1.000000" fill-rule="evenodd"/>
</svg>
